<?xml version="1.0" encoding="utf-8"?>
<!-- Generator: Adobe Illustrator 24.2.1, SVG Export Plug-In . SVG Version: 6.00 Build 0)  -->
<svg version="1.1" id="Layer_1" xmlns="http://www.w3.org/2000/svg" xmlns:xlink="http://www.w3.org/1999/xlink" x="0px" y="0px"
	 viewBox="0 0 53 53" style="enable-background:new 0 0 53 53;" xml:space="preserve">
<style type="text/css">
	.st0{fill:#3D95CE;}
</style>
<path class="st0" d="M13,6.8c0,3.5-2.8,6.3-6.3,6.3c-3.5,0-6.3-2.7-6.3-6.3c0-3.5,2.8-6.3,6.3-6.3C10.1,0.5,13,3.3,13,6.8z"/>
<path class="st0" d="M12.2,51.6c0,0.9,0,0.9-0.9,0.9H2.1c-0.6,0-0.8-0.1-0.8-0.8V18.6c0-0.6,0.2-0.8,0.8-0.8c3.1,0.1,6.2,0.1,9.3,0
	c0.6,0,0.8,0.2,0.8,0.8v16.5C12.2,40.5,12.2,46,12.2,51.6z"/>
<path class="st0" d="M52.4,33.2v18.4c0,0.6-0.2,0.8-0.8,0.8c-3.1-0.1-6.2-0.1-9.2,0c-0.7,0-0.8-0.2-0.8-0.9c0.1-5.7,0.1-11.4,0-17.1
	c0-1.5-0.1-2.9-0.4-4.4c-0.6-2.4-2.2-3.6-4.7-3.7c-0.8,0-1.6,0.1-2.4,0.2c-2.5,0.6-3.6,2.5-4,4.9c-0.2,1.1-0.3,2.3-0.3,3.4v16.6
	c0,0.7-0.2,0.9-0.8,0.9c-3-0.1-6.2-0.1-9.2,0c-0.7,0-0.8-0.2-0.8-0.9v-33c0-0.7,0.2-0.9,0.8-0.9c2.9,0.1,5.9,0.1,8.9,0
	c0.6-0.1,0.8,0.2,0.8,0.8v3.9c1.7-2.7,3.8-4.4,6.7-5.2c3.5-0.9,6.9-0.6,10.2,0.8c3.3,1.5,4.8,4.4,5.6,7.7
	C52.3,28.3,52.4,30.8,52.4,33.2z"/>
</svg>
