<svg width="58" height="55" viewBox="0 0 58 55" fill="none" xmlns="http://www.w3.org/2000/svg">
<path d="M42.3496 19.7627H44.809C47.4181 19.7627 49.9203 20.7991 51.7652 22.644C53.6101 24.4889 54.6465 26.9911 54.6465 29.6002C54.6465 32.2093 53.6101 34.7115 51.7652 36.5564C49.9203 38.4013 47.4181 39.4377 44.809 39.4377H42.3496" stroke="#E2A965" stroke-width="5" stroke-linecap="round" stroke-linejoin="round"/>
<path d="M3 19.7627H42.3501V41.8971C42.3501 44.5062 41.3136 47.0084 39.4687 48.8533C37.6238 50.6982 35.1216 51.7346 32.5125 51.7346H12.8375C10.2284 51.7346 7.72623 50.6982 5.88134 48.8533C4.03645 47.0084 3 44.5062 3 41.8971V19.7627Z" stroke="#E2A965" stroke-width="5" stroke-linecap="round" stroke-linejoin="round"/>
<path d="M12.8389 2.54712V9.92525" stroke="#E2A965" stroke-width="5" stroke-linecap="round" stroke-linejoin="round"/>
<path d="M22.6738 2.54712V9.92525" stroke="#E2A965" stroke-width="5" stroke-linecap="round" stroke-linejoin="round"/>
<path d="M32.5127 2.54712V9.92525" stroke="#E2A965" stroke-width="5" stroke-linecap="round" stroke-linejoin="round"/>
</svg>
