<svg width="44" height="53" viewBox="0 0 44 53" fill="none" xmlns="http://www.w3.org/2000/svg">
<path d="M26.6932 2.54712H7.73863C6.48187 2.54712 5.27658 3.04637 4.38791 3.93503C3.49925 4.8237 3 6.02899 3 7.28575V45.1948C3 46.4516 3.49925 47.6568 4.38791 48.5455C5.27658 49.4342 6.48187 49.9334 7.73863 49.9334H36.1704C37.4272 49.9334 38.6325 49.4342 39.5211 48.5455C40.4098 47.6568 40.909 46.4516 40.909 45.1948V16.763L26.6932 2.54712Z" stroke="#F15B4B" stroke-width="5" stroke-linecap="round" stroke-linejoin="round"/>
<path d="M26.6924 2.54712V16.763H40.9083" stroke="#F15B4B" stroke-width="5" stroke-linecap="round" stroke-linejoin="round"/>
<path d="M31.4321 28.6096H12.4775" stroke="#F15B4B" stroke-width="5" stroke-linecap="round" stroke-linejoin="round"/>
<path d="M31.4321 38.0869H12.4775" stroke="#F15B4B" stroke-width="5" stroke-linecap="round" stroke-linejoin="round"/>
<path d="M17.2162 19.1323H14.8469H12.4775" stroke="#F15B4B" stroke-width="5" stroke-linecap="round" stroke-linejoin="round"/>
</svg>
