<?xml version="1.0" encoding="utf-8"?>
<!-- Generator: Adobe Illustrator 24.2.1, SVG Export Plug-In . SVG Version: 6.00 Build 0)  -->
<svg version="1.1" id="Layer_1" xmlns="http://www.w3.org/2000/svg" xmlns:xlink="http://www.w3.org/1999/xlink" x="0px" y="0px"
	 viewBox="0 0 24.4 24.5" style="enable-background:new 0 0 24.4 24.5;" xml:space="preserve">
<style type="text/css">
	.st0{fill:#F15B4B;}
</style>
<path class="st0" d="M5.9,3c0,1.6-1.3,2.9-3,2.9C1.3,5.9,0,4.6,0,3c0-1.7,1.3-3,2.9-3C4.6,0,5.9,1.3,5.9,3z"/>
<path class="st0" d="M5.6,24c0,0.4,0,0.4-0.4,0.4H0.8c-0.3,0-0.4-0.1-0.4-0.4V8.5c0-0.3,0.1-0.4,0.4-0.4c1.5,0,2.9,0,4.4,0
	c0.3,0,0.4,0.1,0.4,0.4v7.8C5.5,18.8,5.5,21.4,5.6,24z"/>
<path class="st0" d="M24.4,15.4V24c0,0.3-0.1,0.4-0.4,0.4c-1.4,0-2.9,0-4.3,0c-0.3,0-0.4-0.1-0.4-0.4c0-2.7,0-5.3,0-8
	c0-0.7-0.1-1.4-0.2-2c-0.3-1.1-1-1.7-2.2-1.7c-0.4,0-0.8,0-1.1,0.1c-1.2,0.3-1.7,1.2-1.9,2.3c-0.1,0.5-0.1,1.1-0.1,1.6v7.8
	c0,0.3-0.1,0.4-0.4,0.4c-1.4,0-2.9,0-4.3,0c-0.3,0-0.4-0.1-0.4-0.4V8.6c0-0.3,0.1-0.4,0.4-0.4c1.4,0,2.8,0,4.2,0
	c0.3,0,0.4,0.1,0.4,0.4v1.8c0.8-1.2,1.8-2.1,3.1-2.4c1.6-0.4,3.2-0.3,4.8,0.4s2.2,2,2.6,3.6C24.4,13.1,24.4,14.2,24.4,15.4z"/>
</svg>
